<?xml version="1.0" encoding="utf-8"?>
<!-- Generator: Adobe Illustrator 21.1.0, SVG Export Plug-In . SVG Version: 6.00 Build 0)  -->
<svg version="1.1" id="Logo_reduced" xmlns="http://www.w3.org/2000/svg" xmlns:xlink="http://www.w3.org/1999/xlink" x="0px"
	 y="0px" viewBox="0 0 200 200" style="enable-background:new 0 0 200 200;" xml:space="preserve">
<style type="text/css">
	.st0{fill:#386AA5;}
	.st1{fill:#FFFFFF;}
</style>
<g>
	<path id="BG" class="st0" d="M169,144.9c0,12.8-10.3,23.1-23.1,23.1H54.1c-12.8,0-23.1-10.4-23.1-23.1V55
		c0-12.8,10.3-23.1,23.1-23.1h91.8c12.8,0,23.1,10.3,23.1,23.1V144.9z"/>
	<g id="IJ">
		<path class="st1" d="M88.9,121.2c-0.1,0.7-0.7,1.2-1.5,1.2H76.3c-0.7,0-1.3-0.4-1.3-1.1l0.1-0.2l7.1-59.3c0.1-0.7,0.2-1,1-1.1H95
			h0.2c0.6,0,0.9,0.4,0.9,1v0.2L88.9,121.2z"/>
		<path class="st1" d="M117.2,123.2c-1.6,12.9-9.7,15.9-19.4,15.9c-5.7,0-6.5-0.2-8-0.4c-0.7-0.1-1.5-0.2-1.5-1.3v-0.5l0.6-4.8
			c0.2-1.4,0.7-1.7,2-1.7c1.2-0.1,2.7-0.1,4.5-0.2c4.3-0.2,7.3-0.6,8.1-6.7l7.5-61.6c0.1-0.7,0.7-1.1,1.4-1.2l11.3,0.2h0.2
			c0.7,0,1,0.4,1,1L117.2,123.2z"/>
	</g>
</g>
</svg>
